<?xml version="1.0" ?><svg enable-background="new 0 0 32 32" version="1.1" viewBox="0 0 32 32" xml:space="preserve" xmlns="http://www.w3.org/2000/svg" xmlns:xlink="http://www.w3.org/1999/xlink"><g id="Glyph"><g><g><path d="M16,3.006C8.835,3.006,3.006,8.836,3.006,16S8.836,28.993,16,28.993S28.993,23.164,28.993,16     S23.165,3.006,16,3.006z M16.159,23.917c-4.374,0-7.917-3.543-7.917-7.917c0-4.374,3.543-7.917,7.917-7.917     c2.138,0,3.924,0.787,5.294,2.063l-2.232,2.232v-0.005c-0.831-0.792-1.885-1.197-3.062-1.197c-2.612,0-4.735,2.207-4.735,4.819     c0,2.612,2.123,4.824,4.735,4.824c2.37,0,3.983-1.356,4.315-3.216h-4.315v-3.088h7.446c0.099,0.529,0.153,1.084,0.153,1.662     C23.758,20.701,20.73,23.917,16.159,23.917z" fill="#1A1718"/></g><g><path d="M16,0C7.163,0,0,7.164,0,16s7.163,16,16,16c8.836,0,16-7.164,16-16S24.837,0,16,0z M16,29.493     C8.548,29.493,2.506,23.453,2.506,16S8.548,2.506,16,2.506c7.452,0,13.493,6.041,13.493,13.494S23.452,29.493,16,29.493z" fill="#1A1718"/></g></g></g></svg>